<mxfile host="app.diagrams.net" modified="2023-01-03T14:30:57.963Z" agent="5.0 (X11; Linux x86_64) AppleWebKit/537.36 (KHTML, like Gecko) Chrome/108.0.0.0 Safari/537.36" etag="Api0XikOEje78wXDpLdf" version="20.6.0" type="github">
  <diagram id="752r7b34Qd-6FPrG6xQN" name="Page-1">
    <mxGraphModel dx="1422" dy="787" grid="1" gridSize="10" guides="1" tooltips="1" connect="1" arrows="1" fold="1" page="1" pageScale="1" pageWidth="827" pageHeight="1169" math="0" shadow="0">
      <root>
        <mxCell id="0" />
        <mxCell id="1" parent="0" />
        <mxCell id="LxrfSHSaZPBQn56vvCMA-1" value="Broker MQTT" style="rounded=0;whiteSpace=wrap;html=1;" parent="1" vertex="1">
          <mxGeometry x="200" y="560" width="100" height="50" as="geometry" />
        </mxCell>
        <mxCell id="LxrfSHSaZPBQn56vvCMA-2" value="" style="shape=image;verticalLabelPosition=bottom;labelBackgroundColor=default;verticalAlign=top;aspect=fixed;imageAspect=0;image=data:image/jpeg,/9j/4AAQSkZJRgABAQAAAQABAAD/2wCEAAkGBxMTEhUTExMWFhUXFxgYFxcYGBoYFxgXGBUXFxcWGBcaHyggGBolHRcXITEhJSkrLi4uGB80OTQtOCgtLisBCgoKDg0OGxAQGy0lICYtLy0tLS0tLS0tLS0vLS8vLS8tLS0vLS0vLS0tLS0tLS0tLS0tLS0vLS0tLS0tLS0tLf/AABEIAJ8BPgMBIgACEQEDEQH/xAAbAAACAwEBAQAAAAAAAAAAAAACAwEEBQAGB//EADgQAAEDAgQEBAUEAQQCAwAAAAEAAhEDIQQSMUEFUWGBInGRoROxwdHwMkJS4fEGFGKCssJyouL/xAAbAQABBQEBAAAAAAAAAAAAAAAFAAECBAYDB//EADkRAAECBQMCBAUCBQMFAQAAAAECEQADBCExBRJBUWETInGBBpGhsfAyQhTB0eHxI1JTYnKiwtIV/9oADAMBAAIRAxEAPwBpCgAnl3VjEC0rhhTGYkAHTmVqDGFBcPChSPMIcvOOyl7YQp4cQTD1hMv/AD90lExhKUMYdlP8kXwz/Irm4cRJ252Ca2gdyRvDR05H+lyXOQgkKNxcjkDqwvHSXTTpoSUJcEsDYAkXIcsMd4SW/wDIpjcMT+4jb9XzH1Vg08tm2Jvob9JOp7oHTuPmPaUIq9WXKU0tDj/cXKfTyu3Gcu9gxUfoNARNTunzCC7bBZWbHzAPg4wQRcvthlFp/c4+/wD7BSaDRu8dwP8A2XU23FpPM6AdQtfBcLMhxyHz+gCEjWazZ4q1ISi9yMkDCRucn1IHUjEFp2i6ZJPh7VqXawUbDqS20fUvgEOYzKeBc6MocQd469U88HnZ3nPv5L0LWwIAAHICFMoZN+NJ7nZLHu7+rY+47njjL+G5AuVH6fdgft6RhUv9NgxLrJ7OCNbYOE9QJ+ZWsulD1fFeoKLlTDoAn+aTFwaFRAfof1Kv/qPK47hrwbGQeV91nVsC9uojzC9rjKuQAxc/muy81xHFOcTmM7BbnRtRqa2WJi0AJ6uXJ7Bmt1JvkAXAy2qUUikUUoUX6MGA7kl/6fU5BpHooFF3RPlOw5EwdCjpgRuMUjSM7KfhFeip8PYAXTIEG+/dBjMPTFocD6g+xlDJGqSJ69ksKJ9GawJcKZVgQ/l5HJEEp2mz5KN8wpHu/JAuARdizkYPSPP/AAyp+EVqPpgQckKGEdfkiBNnAftb+sD38zEgdy/9H+kZzKEqX4YhagN5DY676qKtUmxHbb86LmFzCptturj3sH/v2aOpTKCCfEve20+xctnm1u8ZHwyoylaULg0cl2iv4kZ/wTyQlhW9RqQAAexn2XVcK15kzPMRKpqq9k0oWhQHCmJB+WPdvleCUuhM2UJktaSeUuAR8zf2+9o8+uWjiMIW6aKs6geSuPFDdwYZhak2MIXk9VFOgQVcfhnHY+iaI82ikoVp2Dd19Eh9MhPDvAX6Lr9EShNEogKQFCsYUap4iSwhuJwri6ALKw3CuGUWhoJ/7EfJXijp0iRt6qhVV0qmQFTVAcDkn0Aue/TJtBGl0+ZUK2ykk/QD1OP5ngEx52s0gmdZQL0b+HzfKqtfhYAkk+3NVZWvUMz9xB/6kqH1ZvrFmboFegsEBQ6hSfsSD9IxgFoUA1ovPK2s87/RC2m1vMnyAHlKZmaQPbTSfMKNZq0jw1IkzUbu5O3N7pfjvHfTtEqvGRMqJK9g6bdztbyqI5y4jmO1II6g3k/NyY11pm58Rv4vcaXFkmo2dPOP8BRh3EHtEHkhMisMtYRsJS7bkFZRn9oDs+WClNkB3jQVFCJ0tS/EAXtdpiUCY7fvUWdnIuhLg7SrbaLAfAkuNnayQR0tqhDI/UWn91y7TryQVCGmwGxM6HlEd1GIDT4w6JgX7E2nTRNULYLCwklGQ/AdyCsncQUgXS6LkE2jpTJB2Kl7gleCwBBLMCJYASFb1KfdtV5QoJN4cf0nJE6gD7KcJxgsEGx6if8ACrljmAGeUf8Aa9lz2tqa5c2zjY+RKuU1VImJTR1coDDAgFJs/BIy/rmztAmv0+eFLrqSbuF91zuF/QEhrdQ227PG9geIFxGbKQdDy81oOC8rwsOYSCAL28wvTUasjnB7m3RZ74p0iVTkT5KQkcgBg9sCwGWN+HA/UT30PUFT0FEwuRg9vz+Qd4j4J/m72VptLc2CUnYiqA2C4A730HkszRSfGWxBLdIOTV7A8UuLYlhbZ3uY9F43ESStviVYPs28fuFpjpss08o+69X0elNPTMXc3IPHTocdb9WLx59q1SJ9Q4IYWcfX69H9SIo5OpRNXFxKltM8kWgYXi8yrIyk+HW2so6lbQNNhuUeD4eTqr54U0NLiSYF4lCKrV6GkUUrVd7gB7nksM9eesFabS66pQFITbAJLW4Au7dBxGZmzRmegYyXRPdP/wBu0i1uR27pjcOwd+XJXJVZImp3SlgjsQb8e/bPaK03T6mUrbOQQe73AzfkWyLDrBBwj2H3QNqXsO4/tTVaDaZGmvqpDm8/tOyHrqJQmEz5gAdkjcwIa5LEEqJcbVMA1gbmDKKaeJaU08sks6lFDkF7AbgQEgMrckFRfKbJhFagZtB59Cj/ANs0C+q7Mb6zP3Si5C53xKUSUqTLIJfOLKKWOOl+ncXgjJ+FkGcrfMcfW6QXDvyf7g2hvxLWA+q41AdT2C6nhidwmGgGi9+6zM6vrKhJE1ZIOcAfJLD+tukaiRp9HTqBlIAIwcn5lzi2Y5tQWiY68kNSkDf+1NWkNgllgROk16bTAp27uXKyTjq1h2AH84G12gSashW7aeyA2ejgv3fPa0No0wNB3kH5I6nQ/wDl+fhQBhDZte39oagcReERX8Qy1yHWFBbPawfi7ixyWHaB0v4dmS5/kKTLx5g5Zr2Znfvw8OaOsdz+Qlvw7TslMqnmfp6I24m9xZd6b4jpCPOVJLgXv7uOOpN4rVXw5VP5QlQYmzj2YuH6AMPvC/8AYDY+yrV8GRt6LQcdxMf9Uxokan2RX/8AYpP+VPz/ABvdhAc6FV/8Sh+fX2f7RgOYQruBohwvsrlWi0i/ruPPkUdGiGiyICaCkHrA0yFJWyuPX7G8GQpm+/rqqOGx0yDAPpPS6usdN419uqB65TTptPtlgHq6ikN80pJdm3uBf3PaHUyZc91k9mTuL9MKIBGdtzbo4cznN+pMfaUeJpw0nXTrvzVHF8QDBE32b152Wc3itQ2MEb2+4Kz9NoFXNliYwHZTg/Jre7d2jQz9epJMzY5PdNx83+zxeqYdpvf0SKzCyNx1VnD4gOHt3+yZVp5upG3MKjMlLkTGIZY6/hB7ZB9INyZ8uol7kncg9H/sRbOCPWMprjuOWv8AamrMafLbdWalI6R6W7JR6qupKVcXObDrx+dbM0WkqUnmwxc9O+O2eLu8VaZ6X5K63CwAXQBIkHYf8j6JLXZXhxutGlUDtHIxodDTT929Q34CbO3Vjn2xzkMD17Uaql2mWjyZUq7O+HB8vqTfjBiHWEiNNSbjyVehQymTJ68/upx7fDIixg+ZQ0qpAgmfp2VzUp0lVX4VQ4CQ4OQbBwUMQ5IZxz0s1TSpM5NH4tMxKiyhcEeYsd77mAO5i5bl33RicTlcAP26/n0XpOH1Q9gIOnL2/Oi8pjqZPiaNbGNiLfnZDg8ZUpHwmOaLalpUnUqNCJZAZlIPGO3BH8ujRlaWvnUVXMM5yXIUOXfPTPzj1PEsd8IgAjSTa/kJWIOIZnXGupOqpY3GOquzOQNdl8/krOl6XKoZCUADc3mI5OTfLPj0HSKuoajMqZxLna9gf6d+fU3vGs8huhtysPqgrMa4E7+fz+6zaTS43Nvz1Vym0sLQB6qwikEuYVhaiTwVEpHoP8txDTK0zZQlqloAGSEgKPRzf6APy8Uf9s6dCFoYXh7nkWVrJN7x+D0TsPV8JaGk2JBExGua2/ZVaqumGmMymAJdnJsLsTcgWI5t64ixT6ehNSJdSSAzsLnAIFgTcHgPD6gAA0tzGqsUAcpDhqDHSRvdUcQ6IDoMn8mUNXHFzCBMi1i2I3mPF8lhKilUaMTVEBSlFyt3ZJF0MCbqPnJAOLBOdmmaVVPgIB2pCf04BP8Au4sB5QC2clmogwSDrP8AlC+t1hcbidkJaq0ypWEhEs2ZnA2qUHJDkOSBZgSWb3gyiQkqK1i7uxO4Asx2g2ScuwDuesdHJG52WQDOxt8goYPWe6is25VQDaLRZJc3iM1kJKLbb1HyQi6SllTOXs3t09P7nmGSkJwIt4Z1kZck4e2oRfDB18uy7pNhHMi8G5yRUnkntoT7eo0RjC3kdY73PyTqSVQwUBAUqggZpHrCsNptItcJL8OQiaYEDVdpEqZMWJaUuTYD8+p4ybRxnTZcpBmKLAZ/Pt1xmIr4fUiL9v8AChtG0mB9UXxL6+ygu1Jg2kHodETXos2UDMnEISAb5vwABdz2+thA1GtSpqhLkArUThiLckkhgAPmWHLxBeB+m6BrXTqOunyVZ+MAeBHmZ0tMKuMfUF8tugt6q/S/DcxSgqaoBOQA7n1Zm4JZR5A6wOq/iaVLSUSkkquCcAHqHcm9g6R3AxGpli91KqUce1xAggn58kONxpaYbHWVpqejlyHTKDA3a7ewe3oOTGXqa6ZUAKmqcizsH92Af3jKbiwLhl+pn2gKauMe790Dlofv7qkplXdoJeKTkBhDQUymVVa7qE5TzHMhou4asWm9w7b1n/K1KNbN15HnfXzWHSK2eBXzCYiDPUyLIDrtGhdOZ37k39QbN9XjQfD+ozZNSKfKVW9CAS4+o934i25kid/yyq1aR5Lcp21NuZ57KCw781iFAlO5o3iZ7Fo8waPMd+aCpS5Zl6Go26S+kD5RK5oly5xKV2seAcDm46Zvdy2Y6GqXKYpD3HOHPFi/YOBwGEZOfNBM2A9k8NEfdNGCJPIdftb5oqmGAFiOrj+WV4SZs+qUlQ3K/dtYWFib4sHYhz0vFdVTIpqZO07U4DuWdy1u54NvaFUQZmREgRMWVHiTfFI3AKtVMYwauzHoAlY3GNyANdY620HK62mm0a6V0gHabsT5geceUD07AubxgtXrpdYAokbxYlI8pHDOynHcclgkMIzm1I1TJlVw4HdPphFmgCoNeOFUt0WjwrEAyDd305SVlVRum4HDF7w1pgk2hcahCFylJWWSQXu1mvcX+XrHemUpE1K0B1AhubvbNo3gGg6X5dvsr3CaQJcQQeTbi27ja5VFvD6uXLUIeJ1FyR/yt5KcPjG0yWtJHtlA2lsRdYmrM+YuZIoiSg+YlBJyMPbaGDM9z+4m0biSmT4KJ1UyZjbRuAGC+HJJ5ezB2SBA8XovzEsJDbSGkyDpHMzz81XwVc0xDm+K4JiTrpzC1sNVglzjc6WOhM78+2iLE0hlJtoTJDDrraM2+6DT5c5RTKmup2CSS7uwABJPp2YAs1i0qokollLAAZYMbOS7Du/cF+5w2YsEkkQCZH4VL3gNk+qP/ZmQcpynSREdxqrB4eSJsWxfp2XSp0qopykKAYkh3BDu1zx1bITcgMQOlPqtJPB2EhgCxBBZnsOelndVg+Yo4fGtm48krFVszoDiAeX5qjqYCagaG5W8xvqd9zGiCrwtzSXBvhAmTE9beq5TpHgTFSlkOC3N84cAtbNuCHBi5IqZU5KZiP3JcOUnkWJBIe+ATyCxER8F37XW9FawbpjNY+3ZRhuHVHNBaBG1w30laOD4aRJeLj+UATYyCNUjKB8zQ8yckOCR9IsYfAucMwEiO/vcp1Thj4BA7acwrOExhbY39beRhXxVYf3nuSPmlbpA5c6aDGAMI8GMpny+X3UZDeZEfNblXFAC1+/vKysZUnlfkPyVGZMJuYnKUo2ZooZzMbIHTJINpn2TcQYZ4iNd9FXw1drzkabAfq2uLlX9LpqiYvenclIuVBwLftcZJNmv6M8V9Rq6eWjYvapRsElib8scAcksO7mK2IqhjpnWD7fll2O4iA2wOZ0EdL6n7KtxGuwOOUBzhaf2j5Ssou5381vlSJdTLSJgcWNwzt2+4PFo8+lTptLNWZRYlxY4B6EdsEc3h1OqYN+pBvM/m0KzSxDQDIcCRFrj0MFUaYQuN9VaIeKoEXWV2A6E+cNHsSmVeItdc078w7/8rNXJNDtxHLiE34c6ISLJ4TwoN6ow5QmAJQiYJlRaPB8Zlf0MD00CzUQXKfJROlqlLDhQY/n1HeJSJypMxM1FiC4/O+D2j2/x5iIm9pPLp1TDmjby76+cT7LF4BjSfA507tB0J5TtbRenpU2VWAtt5a+RXnuoUcyjmlCrjg49H7lji1jhjG9otSl1UsKZjyM+vfkd7jqBGHWeZvl9T+c0FB1r+g/tTxV3wj49Jsee8ws+jxJrnAAEAzBPMLlTaLWVcsTpYTtLs5bFsB/r9I7VGt0dMsy1qLhnYPkPmwxF7GYkNE8vdearYkuJk+a1+M0zkzATBuRP07Lz9N0StrolImmpQxcqYlwzFgwbsOrnJ5aMfrdUqpqTuwlwGLg3y/duG4zmDcUIbO6glHSCLwJwImnQlXWvA680h74Sm10o5sTeCqEE2VzhdTJVa4DMR1Iix3n6KnRF9x5arZwGDa2YAcZ3HdUNSqpVPTqM3BBAF/MSDZxf1PGYIadSTamoSiXwQSbeUPm9vQclo1MZiHOZla0AH9x9wBv3Wdg8KC50uzHUi230XYms42No5jTlATeFUT8ZrjcE+QvaDJWFl6lOkS9khgHchnfHKtxwAOgsQLR6FN0iRMebNcqYsdxDZsydo5ORdyC4injqrqcNYNRFpJjSATp2VrC8RYwyQeRB/V72MRzXpsVh8xnKJFxci/YJWJotcfGGnzCtzfiKimMmbIVcK3MQ9yDm27GVbSGFmMZ+Xp1XLfZNSw27QRawIxgWJDBwXc8RTwvFmv8A0yYEkcrxGinAYlmIqua5hsDlMmLWtpz6oMRTDTDfDmFiB1uL6dlm1MAGvFRti0g6ctkLqBK3bpKClKk2BL2xch+QRyzF7iNBRJUqURNU6w4cOL+noR6u+Gjfo8JglrnS06Rb6pNSmGOLWxIjU206mU/C8SY5gzSD0JA11OU2Hmk42mxz8wc0yBaeQjW8qdVJnKnmZPSSTyBY2ABBA2mwFxY5ySBUopkpKdiDYcPcF8EEu/r6Q6lU8JH6TpI6baXUtoZrrEx2Lvl/QBcn3EdJT+G8eaBlqTbcCR3M29CuUuahaXUG6ekEfAWkOj5Rp/CaOhtY9dNPJC8tJsb/AGifmPVVn8bY4RTDi4mBtvzKs1XEtgxO8aeS6ky2ZMc2WGKoRVfGx0VEvJuT1vKdV0jXS6W5seevbS6npqlGtlgBw7EdjnPTPVnHJB4aiAKOYXYgOD3GOmTjveFYnDh7QBGviknnYg6T90DmMpZyXS6D+k7bA+p9VRx2M1Y0yTYxqBF/JZuHMAtjUe263CKFWzw95CHdmDkEvtJIsnhgH2j9UYiZXJC/F2PMbJJYEBgoAfu5clg9hFRExsrn04/pc15FuaKQO4tBAiQiZhieZ9vzRKRZ0oZjxHOpwECcGzou+CfK09koTwRAQtqd/NAwojT3HfulDQNWJtMdb+h5IQVOVE1MLRImIaUYULlKIRYk7LY4Hxb4bz8QktcZJBuDzPMLDbKMKvUU8uolmXMwfnkG3uB26gx0kz1yFiYjI+XIv7Ex6vi2Ep4jI5r2wHQczhcE6ayCqXFoYGNphsi5Mgi1gAJ/IWExxBDmmCN91foY8uMVDPM9ORAhB/4CqpUoEpe9CHOw2Jd7Eh9wDk7SAPWwBiVWUtQtXjJ2KU3nFwGa9yNuAHe3XmGvx5ALagaCebr92gGVl4rCtJlr2idRBA7fgWnguGNqvPjzbkCDHLb8hRjMHTa7K5jgQet4tc8lObqFDTTdhWQcsAWvhwQSMOyWZ3IuDEpOn19SgkISfU39iCAehJfDcXwa9JzHZXR2nTnonUQtWtTZUGVoGZtwCY9Cb9iVnVqTqbsrhB/NEUpahFRLExBcHn857ZEC6ymmU8zw5iWP58x3FoRVF1AaEbmygyKxFYGL2Ap+Me263m5mftAPUmf/ABXncJiSxwcZgCOcBenwuKJIy5SCWiwM381kfiqTOUmVMSLJ3OXw7N9j9L3vqvheahCpiHupmHXa/Pvj1bmLb8MKjQHDYQ7cW/LKcLw+LuGYbAQBa3ivdVOJVXMqMF5JOWSQBGhI0iefVXadZ8AucBYTaR2vZYpKygeU5jWHfsBGDAcSxpYQRYwLF0CZ0OympxFzgCBHlBB9VTr0yXExruTaYvurtPDWkGY5X7gT2XUhISyvt+fnyhmQkB2eK1Z7qjTqXDQH3mFWq0TUYHCWjQ7CdzMrdwWDgySdrfPtos/HsgktqACJJBE8rz2V6RMQuQJayEgEkKuwH7gQATdnFrF3yYqKUpM7fKDuACmwc8EOQHDsb3DcgCMz4fwtag9Q7ppdYtWtLiQCJI00F903H1RngAXE5iTclUjIW50fTJdDLKkEkqYkm3p5ePe+BbEYrWdSmVszZMAASSA17vl2v2a3N8xtUHNeM37ryOv5K6o/WTp5fhVXhtSO9vz091OOMhpg3JM7aC3shtRo8tVeAbS1B7W83KfUh1dWdsODdLrs1OmKUDumoLXv5ThTcgOE9HZ8sbnDMQ0vDcrmm8EHTdblagHMID9RM5iL7XkwvIUHEEka5THLafaV6B1R/wAMRfnHOZiea461om4pmUgCT+nbgFgpVu/DWHJitpOsTLpqFEtfcbs5Av2BLkwirWdTHinkeebkVTr1jUbUdYNaBPUyCPzou4lRcWzqSZcRc/pAjr5ruHMyHKZ8VzOgi95ty9UWpKVMimExMtKVliQ2GIJvnAs7kEg3OaNbVqnVZQZhUgWDPdwQGH/ceAAUg2AaMJ5INj+FNpu0KbxPD5KrmiNZtoJAMdpQBh2In1E9kVlzEzEJWnBAI9DcdsdHgTNlqQopULix9rfeJqtgjkQT3BhKnmnvoONy4SIEaW8vP5quWHkdeRhTBiAESRKaGtAiAet0soSCNfnKeHY8QxlMak9hcqTUOgNkkBc5KGaBTGPP3/wuyAbplRpy5hECyUOTC2/4/tShb5o29UoYxC5S4Qdj5Igwp3ho5pCalsYjcYTQ0cTCY+IsdfVKDpCAvKUMRHoeBEMBMOzOgSBIAj7HVP4pVdmABJ3JJ8xoi4DWFWnkjxN3BImBbQ3t9Uqtw+rexMCSenReYa5438aszetv/X/xb/Lx6XoopxTSzLYAAfP931eK1GoG1G1IEiRedxGs9V2IIqfqHl0QNwp/kfblE6d01lK/51/Oyr0dVNpZ3jS23M1xkd2b7wRrKOTVyjKmixbFj7f4jHq4dzdR3F0rOvQ5QB4tF5vFuBcSJiLX2legaTqaq5CipG3a3cF+nfqOhHWPPtX0lNCtKUzN25yxyG69jwbYNrRJO0omOIuPf7JNNWDpqixAIYwHcpLjPyg63EKrrl5J5x4r9VcwGNdAvOW8QNdDeb6yskuhMw1WCCuE+mRNlKlMACCMAgFmBbqOPlFiRVLlTkTi52kHJBIBch7sDzxyzx66tiS2kC5paXHQiIg39bbpNDGHUOM+cKwxpqAS4nzJJj5j1SS3KDsfMz2krzLwSlZSvIJB+xj06WpK5e5N3D/PH8o0aeJJkh8kfygDS58tF53i3EXZiC9xIJhtob/HUGf7VjEPdY2nY3nWLdbFYuJp3J8Vybwdza8I/olBT1E9S5g/QAyeHPPDs1hi/QCAGuVM6jlJTJP63BUBcANYNh3Z82tcuK3VGw80xlQtlpAg9L+utkVSnEXkESFtX6xhiLNENeAD1jr+aKuXFNru8IA5yT8h5QlBIBnh8tDKdYtLSNRdesw+IFSkXMgGBmEctwBoeg17ryBVjBY59Iyx0c9wVR1GjVUS/wDTICwxBOLEKZTXYkD0LEXAi5RVQkLO4Oku/W4IcPZ2J9QSMR6nBYYEm7gQQCACJnQyNtZVXjWGFV8ZnNa2A6BvBO5FoGvUc1SZxmm67qZb1a6R1MWR08eHE5XQSLtLbnUazB1KG/wdSKo1W8hgAlJSCEuU7mKSoGwLFgQTdwIIGpkGQJDBibkKYlnZwdpy1nYgFmMIfgRULHN1IcPFuBAaTE+Ign2VZ3DajJJZYGCQJE/m6ujDmQc5DW7AgC3QRC1KWNOVwJJkbmw39FbqKipkp3SgF87TZTPx7dRYDk2jhJppE5QTMdLlnDEPjj7pOTwI8kabtmkz5fdMP6QcpWxi30y6zmNcDAuT3udAqENuHm86wSDpsPmFbk1C1o3LQU9QbkejfqHQjrgEECpPpUoVtQsK6EWBHD38p7HHViHohv5N/lCioLW0RibwBrsZQ/DnXTt9SrcVQYUzRcEYpxuFEJQ7iOzyIRAmIvGvRJRBKJNDaZG9uuvsmNLTfLHylIBRkBM0RdoY9v5ClLY+EwJ4jHZhzUO0UfDUgJQ1oHOgJToUZUod4Zg8W6i4Oab+3kV7ng+LGJZmLQI1vob3Ea6r58Qva/6WpltCTEGYi0yZ+ULO/EcqT/D+IoeZ2fqGJY/K3TjpB/QZkwzVSwfKxU3dwH+t+vML4s+nmAafEIBbFu7oubqtTgzbv9k7i/D2E/FAAdNySQI8hqUhzgBY6a+XM8isNQSzUKTLRklr/mOebPG5XOlyJBmF2SL/AJi+B3tCOIwGOE6iNtZB+i85UstDG4kusNOUKi+kV6bp1GaSnTKJc3f3Lx5vqVcKypM0BhYAcsBz3dzAMcFZmyrimCnGnZXoHqaK9Qp+DHjaTESJlKyJrnQANwZSBaHVcNHvaOELmgtfaBaB3lUq/CXNdmJME/tJPaDZTwXHRSguEwSAW620meabi8YHCzQOg/URt1XmVVIVIqFyn/SeeRwfcMXj0qiqJk+SmaGAUL/zHsXEZWMxeQEXIba5E3/b1TP9NYJlUuq1AbEW2iN+cLO4mRli87gkHWIQ8P4gW0n08oIP7jtIAP0WjpdMnDTj4XlmTGc7sJ3cdPKcBlOc2SIzuoalLVqDTC8uW7DblbXPV9zscdrlRo4qoKtVxbYF3YDryRVHgmwgQANza11UIRtstQlISGGBj0jMLJVc5OfWOqNuoCNzA5BkhSiIicSPF2HrAlKaDsrNalJ0jT5BLNOEocKAg8PTzWJgrUoYRtO5OY7Dl6Knw+sM0GJykNOmxWuHCNNvzyQDXNUm0bS5YuoHzHhmwPf06gxotB0mVWFUyaoskjyizve5y1mt0N4F94v9bpZeQCNf75qW1IIsR6dOvX2VerVcT+kj06/b3WIFXNlrMwKO4jaSbljxd/8ANw0bw0slaRLKBtBCgMXHNmv9xYuIsPwTXm+sa7+qzHUHOc4alpv8lpUH5oEEHZU6zz8QiZ0mLftW0+H9RVUyzKVlAF8uMXe7jnrY8mML8SaYmmmeOn9KyXGGUbnhmOR0uGxANpRIdN4g6EEbEoKRbPicAOurun9KBbM0WBPMqv8A7eD/AH9UfAN4ze5JIPTrz/Z/6F2h+KYAJi8gAmIPPW3+VSJT8brE6ad7/KFWUh1iScRymFxC4J4eIBRtchMqEoTPDgj+IktRhPmINDmuXErmBcU0Q5jlyU10JgMpQ8CRe5Xu+GgspNygG38rWgWXi8MyXDzXuW1AKQ5xHWbrJ/FClqTKkouSTbkmzYc9RiNN8PBIE2Yrhg/zJv8AKEY5pLL+G4tYyNOXX/6rynEcWP0N0m5O/TyVziuPLZj9R9l55rld0TREUCdyiFLPPQWsLlw/7rE+gEVNT1RdV/ppsgHFrngm3TguBDc5RGpOqUXKQj8BWhzGrnclFMoilDcwt1ksvvKYdb+yCEokIvcOxP7SYB0OkGFYqcSgEMBPUx+QsolR8SJCqTaCnmzfFmJc2y/HZ256Rdk6jVSZPgylkJvhuc3Z/kYZVqSI3JR0neGOqCjTLlYNI8lbgeWFhCCISpTazY1CUxvJKJDvB0ynOagY2EwvnVKIm+IipUcTMmfslVahIgx2AHyTUBYlDvAUHNaQXAmCCtGtxNoNgXeVlmubCEqrU0MiqYTkuztcjPoRF6k1CopNxkqbcz2Bx6g9YuM4nf8ATA9T7lXab2uHg6eYufTzWIWIqci4N1Uq9GpaiVsCQkjBSAG+TP6Rdo9cq6aZvKysHIUSQfcu35azRv0yGNLnbcrn2WQ3EnMTzt6aK1iMQ19IT+rzOoiPzqsy6hpGmpopahkks5AFhjBNvXPQCH1rVFVy0kMEgOwJNzlywuMM3lNnMaLGF05RINyEdfD2zNtaYJH6ebesqvw8eKSSBEGPYDqtGq1kQXR4Y5gDkY/Lq7MnnxfDlsSGKuwPXoTlI7E4ijKpECQZ05wkuE8FSh/te20YUcBxzjCfJJJ1JQubC0atGkNak/8Ax+ypujbTaVaEVXPMCuhcoMqURiVMI/hdUYak8M8JRsbuicwLswTQzwYQPNlJKW9yUICAUhyFxUByUSaNDh7/ABA+fyXq8VjmljWt0y3/ACF4cFaFHiNQNInXfT15oTqGm/xFRKn2Ow3BLA9Dg3BuBZyzlsk6KvEiRMklxuwRcuzNkWIs/EXcdhmHxEX01IvtZZDqAnSE04h8XcfVV2tkyiiUkZMDZigouLQVWiBoI80stVljiNClfCBN5v7KUQBteABhNBSOnKyOm5KHIg3MQhiY59kp1SNPklEQ5iPhlLNNEyqVFSolEw7wWfkY8imElVqbk59fbZKERxHPqE6lOwdUNM77KqHyjYJMJM8I2jVrszgFpm5tpfu73WdUMeafRe5oibFJxQM33uopTtDQlL3l+fp/aIa6UUpAKP4ilEWg0LgEJqIIPNKHaGBgRFlklpI3TmvShGJFSBlIkJICc5qWWJQwjV4U3wGf5WjnAUY1zKZEtzE7FUsNjsgMC6r1axeSSbqO0uXxHUEMLXEBWdJPXZc0pRpmReI2+/NOAUhETYR//9k=;" parent="1" vertex="1">
          <mxGeometry x="250" y="30" width="300" height="150" as="geometry" />
        </mxCell>
        <mxCell id="LxrfSHSaZPBQn56vvCMA-3" value="Front&lt;br&gt;(techno à déterminer, Kibana, Grafana possible)" style="rounded=0;whiteSpace=wrap;html=1;" parent="1" vertex="1">
          <mxGeometry x="61.89" y="220" width="120" height="60" as="geometry" />
        </mxCell>
        <mxCell id="LxrfSHSaZPBQn56vvCMA-4" value="" style="shape=cylinder3;whiteSpace=wrap;html=1;boundedLbl=1;backgroundOutline=1;size=15;" parent="1" vertex="1">
          <mxGeometry x="590" y="200" width="40" height="60" as="geometry" />
        </mxCell>
        <mxCell id="LxrfSHSaZPBQn56vvCMA-7" value="" style="endArrow=none;dashed=1;html=1;rounded=0;" parent="1" edge="1">
          <mxGeometry width="50" height="50" relative="1" as="geometry">
            <mxPoint x="20" y="400" as="sourcePoint" />
            <mxPoint x="810" y="400" as="targetPoint" />
          </mxGeometry>
        </mxCell>
        <mxCell id="LxrfSHSaZPBQn56vvCMA-8" value="Mirror Maker" style="rounded=0;whiteSpace=wrap;html=1;" parent="1" vertex="1">
          <mxGeometry x="565" y="430" width="90" height="50" as="geometry" />
        </mxCell>
        <mxCell id="LxrfSHSaZPBQn56vvCMA-9" value="" style="shape=cylinder3;whiteSpace=wrap;html=1;boundedLbl=1;backgroundOutline=1;size=15;" parent="1" vertex="1">
          <mxGeometry x="590" y="555" width="40" height="60" as="geometry" />
        </mxCell>
        <mxCell id="LxrfSHSaZPBQn56vvCMA-10" value="Kafka" style="text;html=1;strokeColor=none;fillColor=none;align=center;verticalAlign=middle;whiteSpace=wrap;rounded=0;" parent="1" vertex="1">
          <mxGeometry x="580" y="615" width="60" height="30" as="geometry" />
        </mxCell>
        <mxCell id="LxrfSHSaZPBQn56vvCMA-11" value="" style="endArrow=classic;html=1;rounded=0;exitX=0.5;exitY=0;exitDx=0;exitDy=0;exitPerimeter=0;entryX=0.5;entryY=1;entryDx=0;entryDy=0;" parent="1" source="LxrfSHSaZPBQn56vvCMA-9" target="LxrfSHSaZPBQn56vvCMA-8" edge="1">
          <mxGeometry width="50" height="50" relative="1" as="geometry">
            <mxPoint x="390" y="470" as="sourcePoint" />
            <mxPoint x="440" y="420" as="targetPoint" />
          </mxGeometry>
        </mxCell>
        <mxCell id="LxrfSHSaZPBQn56vvCMA-12" value="" style="endArrow=classic;html=1;rounded=0;entryX=0.5;entryY=1;entryDx=0;entryDy=0;entryPerimeter=0;exitX=0.5;exitY=0;exitDx=0;exitDy=0;" parent="1" source="LxrfSHSaZPBQn56vvCMA-8" target="LxrfSHSaZPBQn56vvCMA-4" edge="1">
          <mxGeometry width="50" height="50" relative="1" as="geometry">
            <mxPoint x="390" y="470" as="sourcePoint" />
            <mxPoint x="440" y="420" as="targetPoint" />
          </mxGeometry>
        </mxCell>
        <mxCell id="LxrfSHSaZPBQn56vvCMA-13" value="Camel K" style="whiteSpace=wrap;html=1;aspect=fixed;" parent="1" vertex="1">
          <mxGeometry x="390" y="560" width="50" height="50" as="geometry" />
        </mxCell>
        <mxCell id="LxrfSHSaZPBQn56vvCMA-14" value="" style="endArrow=classic;html=1;rounded=0;exitX=0;exitY=0.5;exitDx=0;exitDy=0;entryX=1;entryY=0.5;entryDx=0;entryDy=0;" parent="1" source="LxrfSHSaZPBQn56vvCMA-13" target="LxrfSHSaZPBQn56vvCMA-1" edge="1">
          <mxGeometry width="50" height="50" relative="1" as="geometry">
            <mxPoint x="390" y="470" as="sourcePoint" />
            <mxPoint x="440" y="420" as="targetPoint" />
          </mxGeometry>
        </mxCell>
        <mxCell id="LxrfSHSaZPBQn56vvCMA-15" value="" style="endArrow=classic;html=1;rounded=0;exitX=1;exitY=0.5;exitDx=0;exitDy=0;entryX=0;entryY=0.5;entryDx=0;entryDy=0;entryPerimeter=0;" parent="1" source="LxrfSHSaZPBQn56vvCMA-13" target="LxrfSHSaZPBQn56vvCMA-9" edge="1">
          <mxGeometry width="50" height="50" relative="1" as="geometry">
            <mxPoint x="390" y="470" as="sourcePoint" />
            <mxPoint x="440" y="420" as="targetPoint" />
          </mxGeometry>
        </mxCell>
        <mxCell id="LxrfSHSaZPBQn56vvCMA-18" value="Head quarter (1)" style="text;strokeColor=none;fillColor=none;align=left;verticalAlign=middle;spacingLeft=4;spacingRight=4;overflow=hidden;points=[[0,0.5],[1,0.5]];portConstraint=eastwest;rotatable=0;whiteSpace=wrap;html=1;" parent="1" vertex="1">
          <mxGeometry x="10" y="20" width="130" height="30" as="geometry" />
        </mxCell>
        <mxCell id="LxrfSHSaZPBQn56vvCMA-19" value="Warehouse (10)" style="text;strokeColor=none;fillColor=none;align=left;verticalAlign=middle;spacingLeft=4;spacingRight=4;overflow=hidden;points=[[0,0.5],[1,0.5]];portConstraint=eastwest;rotatable=0;whiteSpace=wrap;html=1;" parent="1" vertex="1">
          <mxGeometry x="10" y="420" width="130" height="30" as="geometry" />
        </mxCell>
        <mxCell id="LxrfSHSaZPBQn56vvCMA-20" value="Front&lt;br&gt;(techno à déterminer, Kibana, Grafana possible)" style="rounded=0;whiteSpace=wrap;html=1;" parent="1" vertex="1">
          <mxGeometry x="20" y="490" width="120" height="60" as="geometry" />
        </mxCell>
        <mxCell id="LxrfSHSaZPBQn56vvCMA-21" value="" style="shape=image;verticalLabelPosition=bottom;labelBackgroundColor=default;verticalAlign=top;aspect=fixed;imageAspect=0;image=https://res.cloudinary.com/practicaldev/image/fetch/s--DbaHwLON--/c_limit%2Cf_auto%2Cfl_progressive%2Cq_auto%2Cw_880/https://dev-to-uploads.s3.amazonaws.com/uploads/articles/fxw43n0qsszvu7myk9db.png;" parent="1" vertex="1">
          <mxGeometry x="660" y="20" width="150" height="97.5" as="geometry" />
        </mxCell>
        <mxCell id="LxrfSHSaZPBQn56vvCMA-22" value="" style="shape=image;verticalLabelPosition=bottom;labelBackgroundColor=default;verticalAlign=top;aspect=fixed;imageAspect=0;image=https://res.cloudinary.com/practicaldev/image/fetch/s--DbaHwLON--/c_limit%2Cf_auto%2Cfl_progressive%2Cq_auto%2Cw_880/https://dev-to-uploads.s3.amazonaws.com/uploads/articles/fxw43n0qsszvu7myk9db.png;" parent="1" vertex="1">
          <mxGeometry x="660" y="416.25" width="150" height="97.5" as="geometry" />
        </mxCell>
        <mxCell id="LxrfSHSaZPBQn56vvCMA-23" value="SNO / Compact Cluster" style="text;html=1;strokeColor=none;fillColor=none;align=center;verticalAlign=middle;whiteSpace=wrap;rounded=0;" parent="1" vertex="1">
          <mxGeometry x="690" y="525" width="105" height="30" as="geometry" />
        </mxCell>
        <mxCell id="LxrfSHSaZPBQn56vvCMA-24" value="" style="shape=image;verticalLabelPosition=bottom;labelBackgroundColor=default;verticalAlign=top;aspect=fixed;imageAspect=0;image=https://www.gotronic.fr/ori-module-nodemcu-esp32-28407.jpg;" parent="1" vertex="1">
          <mxGeometry x="183.84" y="990" width="152.32" height="116" as="geometry" />
        </mxCell>
        <mxCell id="LxrfSHSaZPBQn56vvCMA-25" value="ESP32" style="text;html=1;strokeColor=none;fillColor=none;align=center;verticalAlign=middle;whiteSpace=wrap;rounded=0;" parent="1" vertex="1">
          <mxGeometry x="229.99999999999997" y="1106" width="60" height="30" as="geometry" />
        </mxCell>
        <mxCell id="LxrfSHSaZPBQn56vvCMA-30" style="edgeStyle=orthogonalEdgeStyle;rounded=0;orthogonalLoop=1;jettySize=auto;html=1;exitX=1;exitY=0.5;exitDx=0;exitDy=0;" parent="1" source="LxrfSHSaZPBQn56vvCMA-28" target="LxrfSHSaZPBQn56vvCMA-24" edge="1">
          <mxGeometry relative="1" as="geometry" />
        </mxCell>
        <mxCell id="LxrfSHSaZPBQn56vvCMA-28" value="" style="shape=image;verticalLabelPosition=bottom;labelBackgroundColor=default;verticalAlign=top;aspect=fixed;imageAspect=0;image=https://m.media-amazon.com/images/I/71sldVacymL._AC_SS450_.jpg;" parent="1" vertex="1">
          <mxGeometry x="40" y="996" width="110" height="110" as="geometry" />
        </mxCell>
        <mxCell id="LxrfSHSaZPBQn56vvCMA-31" value="" style="shape=image;verticalLabelPosition=bottom;labelBackgroundColor=default;verticalAlign=top;aspect=fixed;imageAspect=0;image=https://www.datalogic.com/_img_path_900/upload/image_gallery/jpg/products/PLP-2128P-SLED-UHF-RFID-READER-WITH-MEMOR10.jpg;" parent="1" vertex="1">
          <mxGeometry x="170" y="770" width="138.12" height="140" as="geometry" />
        </mxCell>
        <mxCell id="LxrfSHSaZPBQn56vvCMA-32" value="Implémenté par un ESP 32 + Lecteur RFID" style="shape=callout;whiteSpace=wrap;html=1;perimeter=calloutPerimeter;position2=0;" parent="1" vertex="1">
          <mxGeometry x="350" y="730" width="250" height="140" as="geometry" />
        </mxCell>
        <mxCell id="LxrfSHSaZPBQn56vvCMA-37" value="" style="endArrow=classic;html=1;rounded=0;exitX=0.5;exitY=0;exitDx=0;exitDy=0;entryX=0.5;entryY=1;entryDx=0;entryDy=0;" parent="1" source="LxrfSHSaZPBQn56vvCMA-31" target="LxrfSHSaZPBQn56vvCMA-1" edge="1">
          <mxGeometry width="50" height="50" relative="1" as="geometry">
            <mxPoint x="390" y="490" as="sourcePoint" />
            <mxPoint x="440" y="440" as="targetPoint" />
          </mxGeometry>
        </mxCell>
        <mxCell id="LxrfSHSaZPBQn56vvCMA-38" value="" style="shape=image;verticalLabelPosition=bottom;labelBackgroundColor=default;verticalAlign=top;aspect=fixed;imageAspect=0;image=https://i.ebayimg.com/images/g/LJ0AAOSwoJxbdjGL/s-l500.jpg;" parent="1" vertex="1">
          <mxGeometry x="418.9" y="976" width="146.1" height="150" as="geometry" />
        </mxCell>
        <mxCell id="LxrfSHSaZPBQn56vvCMA-39" style="edgeStyle=orthogonalEdgeStyle;rounded=0;orthogonalLoop=1;jettySize=auto;html=1;exitX=1;exitY=0.5;exitDx=0;exitDy=0;" parent="1" source="LxrfSHSaZPBQn56vvCMA-24" target="LxrfSHSaZPBQn56vvCMA-38" edge="1">
          <mxGeometry relative="1" as="geometry">
            <mxPoint x="160" y="1061" as="sourcePoint" />
            <mxPoint x="193.83999999999992" y="1058" as="targetPoint" />
          </mxGeometry>
        </mxCell>
        <mxCell id="LxrfSHSaZPBQn56vvCMA-41" value="" style="shape=curlyBracket;whiteSpace=wrap;html=1;rounded=1;flipH=1;labelPosition=right;verticalLabelPosition=middle;align=left;verticalAlign=middle;rotation=-90;" parent="1" vertex="1">
          <mxGeometry x="300" y="680" width="40" height="560" as="geometry" />
        </mxCell>
        <mxCell id="BNGL0QqLlB4n35BHnOds-2" value="Kafka Streams" style="rounded=0;whiteSpace=wrap;html=1;" vertex="1" parent="1">
          <mxGeometry x="246.17000000000002" y="220" width="120" height="60" as="geometry" />
        </mxCell>
        <mxCell id="BNGL0QqLlB4n35BHnOds-5" style="edgeStyle=orthogonalEdgeStyle;rounded=0;orthogonalLoop=1;jettySize=auto;html=1;exitX=1;exitY=0.5;exitDx=0;exitDy=0;entryX=0;entryY=1;entryDx=0;entryDy=-15;entryPerimeter=0;" edge="1" parent="1" source="BNGL0QqLlB4n35BHnOds-3" target="LxrfSHSaZPBQn56vvCMA-4">
          <mxGeometry relative="1" as="geometry" />
        </mxCell>
        <mxCell id="BNGL0QqLlB4n35BHnOds-3" value="Camel Quarkus" style="rounded=0;whiteSpace=wrap;html=1;" vertex="1" parent="1">
          <mxGeometry x="430" y="220" width="120" height="60" as="geometry" />
        </mxCell>
        <mxCell id="BNGL0QqLlB4n35BHnOds-7" value="2 topics (in + out)" style="text;html=1;strokeColor=none;fillColor=none;align=center;verticalAlign=middle;whiteSpace=wrap;rounded=0;" vertex="1" parent="1">
          <mxGeometry x="530" y="590" width="60" height="30" as="geometry" />
        </mxCell>
        <mxCell id="BNGL0QqLlB4n35BHnOds-8" value="2 topics (in + out)" style="text;html=1;strokeColor=none;fillColor=none;align=center;verticalAlign=middle;whiteSpace=wrap;rounded=0;" vertex="1" parent="1">
          <mxGeometry x="308.12" y="550" width="60" height="30" as="geometry" />
        </mxCell>
        <mxCell id="BNGL0QqLlB4n35BHnOds-10" value="&quot;00:11:22:33&quot;" style="shape=callout;whiteSpace=wrap;html=1;perimeter=calloutPerimeter;position2=0.75;" vertex="1" parent="1">
          <mxGeometry x="216.16" y="490" width="120" height="70" as="geometry" />
        </mxCell>
        <mxCell id="BNGL0QqLlB4n35BHnOds-11" value="{ &quot;id&quot;: &quot;00:11:22:33&quot;, &quot;timestamp&quot;: &quot;112344555&quot; }" style="shape=callout;whiteSpace=wrap;html=1;perimeter=calloutPerimeter;position2=0.73;" vertex="1" parent="1">
          <mxGeometry x="421.95" y="490" width="168.05" height="70" as="geometry" />
        </mxCell>
        <mxCell id="BNGL0QqLlB4n35BHnOds-12" value="20 topics (in + out)" style="text;html=1;strokeColor=none;fillColor=none;align=center;verticalAlign=middle;whiteSpace=wrap;rounded=0;" vertex="1" parent="1">
          <mxGeometry x="620" y="260" width="60" height="30" as="geometry" />
        </mxCell>
        <mxCell id="BNGL0QqLlB4n35BHnOds-13" value="1 topic" style="text;html=1;strokeColor=none;fillColor=none;align=center;verticalAlign=middle;whiteSpace=wrap;rounded=0;" vertex="1" parent="1">
          <mxGeometry x="520" y="200" width="60" height="30" as="geometry" />
        </mxCell>
        <mxCell id="BNGL0QqLlB4n35BHnOds-14" value="{ &quot;id&quot;: &quot;00:11:22:33&quot;, &quot;timestamp&quot;: &quot;112344555&quot; }" style="shape=callout;whiteSpace=wrap;html=1;perimeter=calloutPerimeter;position2=0.73;" vertex="1" parent="1">
          <mxGeometry x="90" y="160" width="168.05" height="70" as="geometry" />
        </mxCell>
      </root>
    </mxGraphModel>
  </diagram>
</mxfile>
